<mxfile host="app.diagrams.net" modified="2023-01-06T05:35:00.750Z" agent="5.0 (Macintosh; Intel Mac OS X 10_14_6) AppleWebKit/537.36 (KHTML, like Gecko) Chrome/108.0.0.0 Safari/537.36" version="20.8.1" etag="jMRo5-_WfJqXC66a-FhJ" type="github">
  <diagram id="UcqNSbr82OSK8BrHRZEj" name="第 1 页">
    <mxGraphModel dx="2120" dy="1191" grid="1" gridSize="10" guides="1" tooltips="1" connect="1" arrows="1" fold="1" page="1" pageScale="1" pageWidth="827" pageHeight="1169" math="0" shadow="0">
      <root>
        <mxCell id="0" />
        <mxCell id="1" parent="0" />
        <mxCell id="H_bpuQL1PY2YIGlxpJCq-24" value="00" style="rounded=0;whiteSpace=wrap;html=1;strokeWidth=2;fillWeight=4;hachureGap=8;hachureAngle=45;fillColor=#ffe6cc;strokeColor=#d79b00;fontSize=15;fontStyle=1;" vertex="1" parent="1">
          <mxGeometry x="481" y="320" width="80" height="40" as="geometry" />
        </mxCell>
        <mxCell id="H_bpuQL1PY2YIGlxpJCq-25" value="000" style="rounded=0;whiteSpace=wrap;html=1;strokeWidth=2;fillWeight=4;hachureGap=8;hachureAngle=45;fillColor=#dae8fc;strokeColor=#6c8ebf;fontSize=15;fontStyle=1;" vertex="1" parent="1">
          <mxGeometry x="361" y="440" width="80" height="40" as="geometry" />
        </mxCell>
        <mxCell id="H_bpuQL1PY2YIGlxpJCq-26" value="0000" style="rounded=0;whiteSpace=wrap;html=1;strokeWidth=2;fillWeight=4;hachureGap=8;hachureAngle=45;fillColor=#d5e8d4;strokeColor=#82b366;fontSize=15;fontStyle=1;" vertex="1" parent="1">
          <mxGeometry x="301" y="560" width="80" height="40" as="geometry" />
        </mxCell>
        <mxCell id="H_bpuQL1PY2YIGlxpJCq-29" value="1000" style="rounded=0;whiteSpace=wrap;html=1;strokeWidth=2;fillWeight=4;hachureGap=8;hachureAngle=45;fillColor=#d5e8d4;strokeColor=#82b366;fontSize=15;fontStyle=1;" vertex="1" parent="1">
          <mxGeometry x="421" y="560" width="80" height="40" as="geometry" />
        </mxCell>
        <mxCell id="H_bpuQL1PY2YIGlxpJCq-31" value="" style="curved=1;endArrow=classic;html=1;rounded=0;strokeWidth=2;exitX=0.5;exitY=1;exitDx=0;exitDy=0;" edge="1" parent="1" source="H_bpuQL1PY2YIGlxpJCq-25">
          <mxGeometry width="50" height="50" relative="1" as="geometry">
            <mxPoint x="421" y="480" as="sourcePoint" />
            <mxPoint x="341" y="560" as="targetPoint" />
            <Array as="points">
              <mxPoint x="391" y="520" />
              <mxPoint x="351" y="520" />
            </Array>
          </mxGeometry>
        </mxCell>
        <mxCell id="H_bpuQL1PY2YIGlxpJCq-33" value="" style="curved=1;endArrow=classic;html=1;rounded=0;strokeWidth=2;entryX=0.5;entryY=0;entryDx=0;entryDy=0;" edge="1" parent="1" target="H_bpuQL1PY2YIGlxpJCq-29">
          <mxGeometry width="50" height="50" relative="1" as="geometry">
            <mxPoint x="401" y="480" as="sourcePoint" />
            <mxPoint x="481" y="560" as="targetPoint" />
            <Array as="points">
              <mxPoint x="411" y="520" />
              <mxPoint x="451" y="520" />
            </Array>
          </mxGeometry>
        </mxCell>
        <mxCell id="H_bpuQL1PY2YIGlxpJCq-35" value="" style="curved=1;endArrow=classic;html=1;rounded=0;strokeWidth=2;exitX=0.5;exitY=1;exitDx=0;exitDy=0;entryX=0.5;entryY=0;entryDx=0;entryDy=0;" edge="1" parent="1" source="H_bpuQL1PY2YIGlxpJCq-24" target="H_bpuQL1PY2YIGlxpJCq-25">
          <mxGeometry width="50" height="50" relative="1" as="geometry">
            <mxPoint x="501" y="360" as="sourcePoint" />
            <mxPoint x="421" y="440" as="targetPoint" />
            <Array as="points">
              <mxPoint x="511" y="400" />
              <mxPoint x="411" y="400" />
            </Array>
          </mxGeometry>
        </mxCell>
        <mxCell id="H_bpuQL1PY2YIGlxpJCq-36" value="" style="curved=1;endArrow=classic;html=1;rounded=0;strokeWidth=2;entryX=0.5;entryY=0;entryDx=0;entryDy=0;exitX=0.5;exitY=1;exitDx=0;exitDy=0;" edge="1" parent="1" source="H_bpuQL1PY2YIGlxpJCq-24" target="H_bpuQL1PY2YIGlxpJCq-71">
          <mxGeometry width="50" height="50" relative="1" as="geometry">
            <mxPoint x="501" y="360" as="sourcePoint" />
            <mxPoint x="581" y="440" as="targetPoint" />
            <Array as="points">
              <mxPoint x="531" y="400" />
              <mxPoint x="631" y="400" />
            </Array>
          </mxGeometry>
        </mxCell>
        <mxCell id="H_bpuQL1PY2YIGlxpJCq-37" value="0100" style="rounded=0;whiteSpace=wrap;html=1;strokeWidth=2;fillWeight=4;hachureGap=8;hachureAngle=45;fillColor=#d5e8d4;strokeColor=#82b366;fontSize=15;fontStyle=1;" vertex="1" parent="1">
          <mxGeometry x="541" y="560" width="80" height="40" as="geometry" />
        </mxCell>
        <mxCell id="H_bpuQL1PY2YIGlxpJCq-38" value="1100" style="rounded=0;whiteSpace=wrap;html=1;strokeWidth=2;fillWeight=4;hachureGap=8;hachureAngle=45;fillColor=#d5e8d4;strokeColor=#82b366;fontSize=15;fontStyle=1;" vertex="1" parent="1">
          <mxGeometry x="661" y="560" width="80" height="40" as="geometry" />
        </mxCell>
        <mxCell id="H_bpuQL1PY2YIGlxpJCq-39" value="" style="endArrow=classic;html=1;rounded=0;strokeWidth=2;exitX=1;exitY=0.5;exitDx=0;exitDy=0;entryX=0;entryY=0.5;entryDx=0;entryDy=0;fillColor=#d5e8d4;strokeColor=#82b366;" edge="1" parent="1" source="H_bpuQL1PY2YIGlxpJCq-26" target="H_bpuQL1PY2YIGlxpJCq-29">
          <mxGeometry width="50" height="50" relative="1" as="geometry">
            <mxPoint x="471" y="740" as="sourcePoint" />
            <mxPoint x="521" y="690" as="targetPoint" />
          </mxGeometry>
        </mxCell>
        <mxCell id="H_bpuQL1PY2YIGlxpJCq-40" value="" style="endArrow=classic;html=1;rounded=0;strokeWidth=2;exitX=1;exitY=0.5;exitDx=0;exitDy=0;entryX=0;entryY=0.5;entryDx=0;entryDy=0;fillColor=#d5e8d4;strokeColor=#82b366;" edge="1" parent="1" source="H_bpuQL1PY2YIGlxpJCq-29" target="H_bpuQL1PY2YIGlxpJCq-37">
          <mxGeometry width="50" height="50" relative="1" as="geometry">
            <mxPoint x="391" y="590" as="sourcePoint" />
            <mxPoint x="471" y="590" as="targetPoint" />
          </mxGeometry>
        </mxCell>
        <mxCell id="H_bpuQL1PY2YIGlxpJCq-41" value="" style="endArrow=classic;html=1;rounded=0;strokeWidth=2;exitX=1;exitY=0.5;exitDx=0;exitDy=0;fillColor=#d5e8d4;strokeColor=#82b366;" edge="1" parent="1" source="H_bpuQL1PY2YIGlxpJCq-37" target="H_bpuQL1PY2YIGlxpJCq-38">
          <mxGeometry width="50" height="50" relative="1" as="geometry">
            <mxPoint x="551" y="590" as="sourcePoint" />
            <mxPoint x="631" y="590" as="targetPoint" />
          </mxGeometry>
        </mxCell>
        <mxCell id="H_bpuQL1PY2YIGlxpJCq-47" value="0010" style="rounded=0;whiteSpace=wrap;html=1;strokeWidth=2;fillWeight=4;hachureGap=8;hachureAngle=45;fillColor=#d5e8d4;strokeColor=#82b366;fontSize=15;fontStyle=1;" vertex="1" parent="1">
          <mxGeometry x="781" y="560" width="80" height="40" as="geometry" />
        </mxCell>
        <mxCell id="H_bpuQL1PY2YIGlxpJCq-48" value="1010" style="rounded=0;whiteSpace=wrap;html=1;strokeWidth=2;fillWeight=4;hachureGap=8;hachureAngle=45;fillColor=#d5e8d4;strokeColor=#82b366;fontSize=15;fontStyle=1;" vertex="1" parent="1">
          <mxGeometry x="901" y="560" width="80" height="40" as="geometry" />
        </mxCell>
        <mxCell id="H_bpuQL1PY2YIGlxpJCq-49" value="0110" style="rounded=0;whiteSpace=wrap;html=1;strokeWidth=2;fillWeight=4;hachureGap=8;hachureAngle=45;fillColor=#d5e8d4;strokeColor=#82b366;fontSize=15;fontStyle=1;" vertex="1" parent="1">
          <mxGeometry x="1021" y="560" width="80" height="40" as="geometry" />
        </mxCell>
        <mxCell id="H_bpuQL1PY2YIGlxpJCq-50" value="1110" style="rounded=0;whiteSpace=wrap;html=1;strokeWidth=2;fillWeight=4;hachureGap=8;hachureAngle=45;fillColor=#d5e8d4;strokeColor=#82b366;fontSize=15;fontStyle=1;" vertex="1" parent="1">
          <mxGeometry x="1141" y="560" width="80" height="40" as="geometry" />
        </mxCell>
        <mxCell id="H_bpuQL1PY2YIGlxpJCq-51" value="" style="endArrow=classic;html=1;rounded=0;strokeWidth=2;exitX=1;exitY=0.5;exitDx=0;exitDy=0;entryX=0;entryY=0.5;entryDx=0;entryDy=0;fillColor=#d5e8d4;strokeColor=#82b366;" edge="1" parent="1" source="H_bpuQL1PY2YIGlxpJCq-47" target="H_bpuQL1PY2YIGlxpJCq-48">
          <mxGeometry width="50" height="50" relative="1" as="geometry">
            <mxPoint x="951" y="740" as="sourcePoint" />
            <mxPoint x="1001" y="690" as="targetPoint" />
          </mxGeometry>
        </mxCell>
        <mxCell id="H_bpuQL1PY2YIGlxpJCq-52" value="" style="endArrow=classic;html=1;rounded=0;strokeWidth=2;exitX=1;exitY=0.5;exitDx=0;exitDy=0;entryX=0;entryY=0.5;entryDx=0;entryDy=0;fillColor=#d5e8d4;strokeColor=#82b366;" edge="1" parent="1" source="H_bpuQL1PY2YIGlxpJCq-48" target="H_bpuQL1PY2YIGlxpJCq-49">
          <mxGeometry width="50" height="50" relative="1" as="geometry">
            <mxPoint x="871" y="590" as="sourcePoint" />
            <mxPoint x="951" y="590" as="targetPoint" />
          </mxGeometry>
        </mxCell>
        <mxCell id="H_bpuQL1PY2YIGlxpJCq-53" value="" style="endArrow=classic;html=1;rounded=0;strokeWidth=2;exitX=1;exitY=0.5;exitDx=0;exitDy=0;fillColor=#d5e8d4;strokeColor=#82b366;" edge="1" parent="1" source="H_bpuQL1PY2YIGlxpJCq-49" target="H_bpuQL1PY2YIGlxpJCq-50">
          <mxGeometry width="50" height="50" relative="1" as="geometry">
            <mxPoint x="1031" y="590" as="sourcePoint" />
            <mxPoint x="1111" y="590" as="targetPoint" />
          </mxGeometry>
        </mxCell>
        <mxCell id="H_bpuQL1PY2YIGlxpJCq-54" value="" style="endArrow=classic;html=1;rounded=0;strokeWidth=2;exitX=1;exitY=0.5;exitDx=0;exitDy=0;entryX=0;entryY=0.5;entryDx=0;entryDy=0;fillColor=#d5e8d4;strokeColor=#82b366;" edge="1" parent="1" source="H_bpuQL1PY2YIGlxpJCq-38" target="H_bpuQL1PY2YIGlxpJCq-47">
          <mxGeometry width="50" height="50" relative="1" as="geometry">
            <mxPoint x="731" y="700" as="sourcePoint" />
            <mxPoint x="781" y="650" as="targetPoint" />
          </mxGeometry>
        </mxCell>
        <mxCell id="H_bpuQL1PY2YIGlxpJCq-55" value="0001" style="rounded=0;whiteSpace=wrap;html=1;strokeWidth=2;fillWeight=4;hachureGap=8;hachureAngle=45;fillColor=#d5e8d4;strokeColor=#82b366;fontSize=15;fontStyle=1;" vertex="1" parent="1">
          <mxGeometry x="1261" y="560" width="80" height="40" as="geometry" />
        </mxCell>
        <mxCell id="H_bpuQL1PY2YIGlxpJCq-56" value="1001" style="rounded=0;whiteSpace=wrap;html=1;strokeWidth=2;fillWeight=4;hachureGap=8;hachureAngle=45;fillColor=#d5e8d4;strokeColor=#82b366;fontSize=15;fontStyle=1;" vertex="1" parent="1">
          <mxGeometry x="1381" y="560" width="80" height="40" as="geometry" />
        </mxCell>
        <mxCell id="H_bpuQL1PY2YIGlxpJCq-57" value="0101" style="rounded=0;whiteSpace=wrap;html=1;strokeWidth=2;fillWeight=4;hachureGap=8;hachureAngle=45;fillColor=#d5e8d4;strokeColor=#82b366;fontSize=15;fontStyle=1;" vertex="1" parent="1">
          <mxGeometry x="1501" y="560" width="80" height="40" as="geometry" />
        </mxCell>
        <mxCell id="H_bpuQL1PY2YIGlxpJCq-58" value="1101" style="rounded=0;whiteSpace=wrap;html=1;strokeWidth=2;fillWeight=4;hachureGap=8;hachureAngle=45;fillColor=#d5e8d4;strokeColor=#82b366;fontSize=15;fontStyle=1;" vertex="1" parent="1">
          <mxGeometry x="1621" y="560" width="80" height="40" as="geometry" />
        </mxCell>
        <mxCell id="H_bpuQL1PY2YIGlxpJCq-59" value="" style="endArrow=classic;html=1;rounded=0;strokeWidth=2;exitX=1;exitY=0.5;exitDx=0;exitDy=0;entryX=0;entryY=0.5;entryDx=0;entryDy=0;fillColor=#d5e8d4;strokeColor=#82b366;" edge="1" parent="1" source="H_bpuQL1PY2YIGlxpJCq-55" target="H_bpuQL1PY2YIGlxpJCq-56">
          <mxGeometry width="50" height="50" relative="1" as="geometry">
            <mxPoint x="1431" y="740" as="sourcePoint" />
            <mxPoint x="1481" y="690" as="targetPoint" />
          </mxGeometry>
        </mxCell>
        <mxCell id="H_bpuQL1PY2YIGlxpJCq-60" value="" style="endArrow=classic;html=1;rounded=0;strokeWidth=2;exitX=1;exitY=0.5;exitDx=0;exitDy=0;entryX=0;entryY=0.5;entryDx=0;entryDy=0;fillColor=#d5e8d4;strokeColor=#82b366;" edge="1" parent="1" source="H_bpuQL1PY2YIGlxpJCq-56" target="H_bpuQL1PY2YIGlxpJCq-57">
          <mxGeometry width="50" height="50" relative="1" as="geometry">
            <mxPoint x="1351" y="590" as="sourcePoint" />
            <mxPoint x="1431" y="590" as="targetPoint" />
          </mxGeometry>
        </mxCell>
        <mxCell id="H_bpuQL1PY2YIGlxpJCq-61" value="" style="endArrow=classic;html=1;rounded=0;strokeWidth=2;exitX=1;exitY=0.5;exitDx=0;exitDy=0;fillColor=#d5e8d4;strokeColor=#82b366;" edge="1" parent="1" source="H_bpuQL1PY2YIGlxpJCq-57" target="H_bpuQL1PY2YIGlxpJCq-58">
          <mxGeometry width="50" height="50" relative="1" as="geometry">
            <mxPoint x="1511" y="590" as="sourcePoint" />
            <mxPoint x="1591" y="590" as="targetPoint" />
          </mxGeometry>
        </mxCell>
        <mxCell id="H_bpuQL1PY2YIGlxpJCq-62" value="0011" style="rounded=0;whiteSpace=wrap;html=1;strokeWidth=2;fillWeight=4;hachureGap=8;hachureAngle=45;fillColor=#d5e8d4;strokeColor=#82b366;fontSize=15;fontStyle=1;" vertex="1" parent="1">
          <mxGeometry x="1741" y="560" width="80" height="40" as="geometry" />
        </mxCell>
        <mxCell id="H_bpuQL1PY2YIGlxpJCq-63" value="1011" style="rounded=0;whiteSpace=wrap;html=1;strokeWidth=2;fillWeight=4;hachureGap=8;hachureAngle=45;fillColor=#d5e8d4;strokeColor=#82b366;fontSize=15;fontStyle=1;" vertex="1" parent="1">
          <mxGeometry x="1861" y="560" width="80" height="40" as="geometry" />
        </mxCell>
        <mxCell id="H_bpuQL1PY2YIGlxpJCq-64" value="0111" style="rounded=0;whiteSpace=wrap;html=1;strokeWidth=2;fillWeight=4;hachureGap=8;hachureAngle=45;fillColor=#d5e8d4;strokeColor=#82b366;fontSize=15;fontStyle=1;" vertex="1" parent="1">
          <mxGeometry x="1981" y="560" width="80" height="40" as="geometry" />
        </mxCell>
        <mxCell id="H_bpuQL1PY2YIGlxpJCq-65" value="1111" style="rounded=0;whiteSpace=wrap;html=1;strokeWidth=2;fillWeight=4;hachureGap=8;hachureAngle=45;fillColor=#d5e8d4;strokeColor=#82b366;fontSize=15;fontStyle=1;" vertex="1" parent="1">
          <mxGeometry x="2101" y="560" width="80" height="40" as="geometry" />
        </mxCell>
        <mxCell id="H_bpuQL1PY2YIGlxpJCq-66" value="" style="endArrow=classic;html=1;rounded=0;strokeWidth=2;exitX=1;exitY=0.5;exitDx=0;exitDy=0;entryX=0;entryY=0.5;entryDx=0;entryDy=0;fillColor=#d5e8d4;strokeColor=#82b366;" edge="1" parent="1" source="H_bpuQL1PY2YIGlxpJCq-62" target="H_bpuQL1PY2YIGlxpJCq-63">
          <mxGeometry width="50" height="50" relative="1" as="geometry">
            <mxPoint x="1911" y="740" as="sourcePoint" />
            <mxPoint x="1961" y="690" as="targetPoint" />
          </mxGeometry>
        </mxCell>
        <mxCell id="H_bpuQL1PY2YIGlxpJCq-67" value="" style="endArrow=classic;html=1;rounded=0;strokeWidth=2;exitX=1;exitY=0.5;exitDx=0;exitDy=0;entryX=0;entryY=0.5;entryDx=0;entryDy=0;fillColor=#d5e8d4;strokeColor=#82b366;" edge="1" parent="1" source="H_bpuQL1PY2YIGlxpJCq-63" target="H_bpuQL1PY2YIGlxpJCq-64">
          <mxGeometry width="50" height="50" relative="1" as="geometry">
            <mxPoint x="1831" y="590" as="sourcePoint" />
            <mxPoint x="1911" y="590" as="targetPoint" />
          </mxGeometry>
        </mxCell>
        <mxCell id="H_bpuQL1PY2YIGlxpJCq-68" value="" style="endArrow=classic;html=1;rounded=0;strokeWidth=2;exitX=1;exitY=0.5;exitDx=0;exitDy=0;fillColor=#d5e8d4;strokeColor=#82b366;" edge="1" parent="1" source="H_bpuQL1PY2YIGlxpJCq-64" target="H_bpuQL1PY2YIGlxpJCq-65">
          <mxGeometry width="50" height="50" relative="1" as="geometry">
            <mxPoint x="1991" y="590" as="sourcePoint" />
            <mxPoint x="2071" y="590" as="targetPoint" />
          </mxGeometry>
        </mxCell>
        <mxCell id="H_bpuQL1PY2YIGlxpJCq-69" value="" style="endArrow=classic;html=1;rounded=0;strokeWidth=2;exitX=1;exitY=0.5;exitDx=0;exitDy=0;entryX=0;entryY=0.5;entryDx=0;entryDy=0;fillColor=#d5e8d4;strokeColor=#82b366;" edge="1" parent="1" source="H_bpuQL1PY2YIGlxpJCq-58" target="H_bpuQL1PY2YIGlxpJCq-62">
          <mxGeometry width="50" height="50" relative="1" as="geometry">
            <mxPoint x="1691" y="700" as="sourcePoint" />
            <mxPoint x="1741" y="650" as="targetPoint" />
          </mxGeometry>
        </mxCell>
        <mxCell id="H_bpuQL1PY2YIGlxpJCq-70" value="" style="endArrow=classic;html=1;rounded=0;strokeWidth=2;exitX=1;exitY=0.5;exitDx=0;exitDy=0;fillColor=#d5e8d4;strokeColor=#82b366;" edge="1" parent="1" source="H_bpuQL1PY2YIGlxpJCq-50" target="H_bpuQL1PY2YIGlxpJCq-55">
          <mxGeometry width="50" height="50" relative="1" as="geometry">
            <mxPoint x="1301" y="750" as="sourcePoint" />
            <mxPoint x="1351" y="700" as="targetPoint" />
          </mxGeometry>
        </mxCell>
        <mxCell id="H_bpuQL1PY2YIGlxpJCq-71" value="100" style="rounded=0;whiteSpace=wrap;html=1;strokeWidth=2;fillWeight=4;hachureGap=8;hachureAngle=45;fillColor=#dae8fc;strokeColor=#6c8ebf;fontSize=15;fontStyle=1;" vertex="1" parent="1">
          <mxGeometry x="601" y="440" width="80" height="40" as="geometry" />
        </mxCell>
        <mxCell id="H_bpuQL1PY2YIGlxpJCq-72" value="" style="curved=1;endArrow=classic;html=1;rounded=0;strokeWidth=2;exitX=0.5;exitY=1;exitDx=0;exitDy=0;" edge="1" parent="1">
          <mxGeometry width="50" height="50" relative="1" as="geometry">
            <mxPoint x="641" y="480" as="sourcePoint" />
            <mxPoint x="581" y="560" as="targetPoint" />
            <Array as="points">
              <mxPoint x="631" y="520" />
              <mxPoint x="591" y="520" />
            </Array>
          </mxGeometry>
        </mxCell>
        <mxCell id="H_bpuQL1PY2YIGlxpJCq-73" value="" style="curved=1;endArrow=classic;html=1;rounded=0;strokeWidth=2;entryX=0.5;entryY=0;entryDx=0;entryDy=0;" edge="1" parent="1">
          <mxGeometry width="50" height="50" relative="1" as="geometry">
            <mxPoint x="641" y="480" as="sourcePoint" />
            <mxPoint x="701" y="560" as="targetPoint" />
            <Array as="points">
              <mxPoint x="651" y="520" />
              <mxPoint x="691" y="520" />
            </Array>
          </mxGeometry>
        </mxCell>
        <mxCell id="H_bpuQL1PY2YIGlxpJCq-74" value="" style="endArrow=classic;html=1;rounded=0;strokeWidth=2;exitX=1;exitY=0.5;exitDx=0;exitDy=0;entryX=0;entryY=0.5;entryDx=0;entryDy=0;fillColor=#dae8fc;strokeColor=#6c8ebf;" edge="1" parent="1" source="H_bpuQL1PY2YIGlxpJCq-25" target="H_bpuQL1PY2YIGlxpJCq-71">
          <mxGeometry width="50" height="50" relative="1" as="geometry">
            <mxPoint x="401" y="630" as="sourcePoint" />
            <mxPoint x="451" y="580" as="targetPoint" />
          </mxGeometry>
        </mxCell>
        <mxCell id="H_bpuQL1PY2YIGlxpJCq-75" value="010" style="rounded=0;whiteSpace=wrap;html=1;strokeWidth=2;fillWeight=4;hachureGap=8;hachureAngle=45;fillColor=#dae8fc;strokeColor=#6c8ebf;fontSize=15;fontStyle=1;" vertex="1" parent="1">
          <mxGeometry x="841" y="440" width="80" height="40" as="geometry" />
        </mxCell>
        <mxCell id="H_bpuQL1PY2YIGlxpJCq-76" value="" style="curved=1;endArrow=classic;html=1;rounded=0;strokeWidth=2;exitX=0.5;exitY=1;exitDx=0;exitDy=0;" edge="1" parent="1" source="H_bpuQL1PY2YIGlxpJCq-75">
          <mxGeometry width="50" height="50" relative="1" as="geometry">
            <mxPoint x="901" y="480" as="sourcePoint" />
            <mxPoint x="821" y="560" as="targetPoint" />
            <Array as="points">
              <mxPoint x="871" y="520" />
              <mxPoint x="831" y="520" />
            </Array>
          </mxGeometry>
        </mxCell>
        <mxCell id="H_bpuQL1PY2YIGlxpJCq-77" value="" style="curved=1;endArrow=classic;html=1;rounded=0;strokeWidth=2;entryX=0.5;entryY=0;entryDx=0;entryDy=0;" edge="1" parent="1">
          <mxGeometry width="50" height="50" relative="1" as="geometry">
            <mxPoint x="881" y="480" as="sourcePoint" />
            <mxPoint x="941" y="560" as="targetPoint" />
            <Array as="points">
              <mxPoint x="891" y="520" />
              <mxPoint x="931" y="520" />
            </Array>
          </mxGeometry>
        </mxCell>
        <mxCell id="H_bpuQL1PY2YIGlxpJCq-78" value="110" style="rounded=0;whiteSpace=wrap;html=1;strokeWidth=2;fillWeight=4;hachureGap=8;hachureAngle=45;fillColor=#dae8fc;strokeColor=#6c8ebf;fontSize=15;fontStyle=1;" vertex="1" parent="1">
          <mxGeometry x="1081" y="440" width="80" height="40" as="geometry" />
        </mxCell>
        <mxCell id="H_bpuQL1PY2YIGlxpJCq-79" value="" style="curved=1;endArrow=classic;html=1;rounded=0;strokeWidth=2;exitX=0.5;exitY=1;exitDx=0;exitDy=0;" edge="1" parent="1">
          <mxGeometry width="50" height="50" relative="1" as="geometry">
            <mxPoint x="1121" y="480" as="sourcePoint" />
            <mxPoint x="1061" y="560" as="targetPoint" />
            <Array as="points">
              <mxPoint x="1111" y="520" />
              <mxPoint x="1071" y="520" />
            </Array>
          </mxGeometry>
        </mxCell>
        <mxCell id="H_bpuQL1PY2YIGlxpJCq-80" value="" style="curved=1;endArrow=classic;html=1;rounded=0;strokeWidth=2;entryX=0.5;entryY=0;entryDx=0;entryDy=0;" edge="1" parent="1">
          <mxGeometry width="50" height="50" relative="1" as="geometry">
            <mxPoint x="1121" y="480" as="sourcePoint" />
            <mxPoint x="1181" y="560" as="targetPoint" />
            <Array as="points">
              <mxPoint x="1131" y="520" />
              <mxPoint x="1171" y="520" />
            </Array>
          </mxGeometry>
        </mxCell>
        <mxCell id="H_bpuQL1PY2YIGlxpJCq-81" value="" style="endArrow=classic;html=1;rounded=0;strokeWidth=2;exitX=1;exitY=0.5;exitDx=0;exitDy=0;entryX=0;entryY=0.5;entryDx=0;entryDy=0;fillColor=#dae8fc;strokeColor=#6c8ebf;" edge="1" parent="1" source="H_bpuQL1PY2YIGlxpJCq-75" target="H_bpuQL1PY2YIGlxpJCq-78">
          <mxGeometry width="50" height="50" relative="1" as="geometry">
            <mxPoint x="881" y="630" as="sourcePoint" />
            <mxPoint x="931" y="580" as="targetPoint" />
          </mxGeometry>
        </mxCell>
        <mxCell id="H_bpuQL1PY2YIGlxpJCq-82" value="" style="endArrow=classic;html=1;rounded=0;strokeWidth=2;exitX=1;exitY=0.5;exitDx=0;exitDy=0;entryX=0;entryY=0.5;entryDx=0;entryDy=0;fillColor=#dae8fc;strokeColor=#6c8ebf;" edge="1" parent="1" source="H_bpuQL1PY2YIGlxpJCq-71" target="H_bpuQL1PY2YIGlxpJCq-75">
          <mxGeometry width="50" height="50" relative="1" as="geometry">
            <mxPoint x="771" y="720" as="sourcePoint" />
            <mxPoint x="821" y="670" as="targetPoint" />
          </mxGeometry>
        </mxCell>
        <mxCell id="H_bpuQL1PY2YIGlxpJCq-83" value="001" style="rounded=0;whiteSpace=wrap;html=1;strokeWidth=2;fillWeight=4;hachureGap=8;hachureAngle=45;fillColor=#dae8fc;strokeColor=#6c8ebf;fontSize=15;fontStyle=1;" vertex="1" parent="1">
          <mxGeometry x="1321" y="440" width="80" height="40" as="geometry" />
        </mxCell>
        <mxCell id="H_bpuQL1PY2YIGlxpJCq-84" value="" style="curved=1;endArrow=classic;html=1;rounded=0;strokeWidth=2;exitX=0.5;exitY=1;exitDx=0;exitDy=0;" edge="1" parent="1" source="H_bpuQL1PY2YIGlxpJCq-83">
          <mxGeometry width="50" height="50" relative="1" as="geometry">
            <mxPoint x="1381" y="480" as="sourcePoint" />
            <mxPoint x="1301" y="560" as="targetPoint" />
            <Array as="points">
              <mxPoint x="1351" y="520" />
              <mxPoint x="1311" y="520" />
            </Array>
          </mxGeometry>
        </mxCell>
        <mxCell id="H_bpuQL1PY2YIGlxpJCq-85" value="" style="curved=1;endArrow=classic;html=1;rounded=0;strokeWidth=2;entryX=0.5;entryY=0;entryDx=0;entryDy=0;" edge="1" parent="1">
          <mxGeometry width="50" height="50" relative="1" as="geometry">
            <mxPoint x="1361" y="480" as="sourcePoint" />
            <mxPoint x="1421" y="560" as="targetPoint" />
            <Array as="points">
              <mxPoint x="1371" y="520" />
              <mxPoint x="1411" y="520" />
            </Array>
          </mxGeometry>
        </mxCell>
        <mxCell id="H_bpuQL1PY2YIGlxpJCq-86" value="101" style="rounded=0;whiteSpace=wrap;html=1;strokeWidth=2;fillWeight=4;hachureGap=8;hachureAngle=45;fillColor=#dae8fc;strokeColor=#6c8ebf;fontSize=15;fontStyle=1;" vertex="1" parent="1">
          <mxGeometry x="1561" y="440" width="80" height="40" as="geometry" />
        </mxCell>
        <mxCell id="H_bpuQL1PY2YIGlxpJCq-87" value="" style="curved=1;endArrow=classic;html=1;rounded=0;strokeWidth=2;exitX=0.5;exitY=1;exitDx=0;exitDy=0;" edge="1" parent="1">
          <mxGeometry width="50" height="50" relative="1" as="geometry">
            <mxPoint x="1601" y="480" as="sourcePoint" />
            <mxPoint x="1541" y="560" as="targetPoint" />
            <Array as="points">
              <mxPoint x="1591" y="520" />
              <mxPoint x="1551" y="520" />
            </Array>
          </mxGeometry>
        </mxCell>
        <mxCell id="H_bpuQL1PY2YIGlxpJCq-88" value="" style="curved=1;endArrow=classic;html=1;rounded=0;strokeWidth=2;entryX=0.5;entryY=0;entryDx=0;entryDy=0;" edge="1" parent="1">
          <mxGeometry width="50" height="50" relative="1" as="geometry">
            <mxPoint x="1601" y="480" as="sourcePoint" />
            <mxPoint x="1661" y="560" as="targetPoint" />
            <Array as="points">
              <mxPoint x="1611" y="520" />
              <mxPoint x="1651" y="520" />
            </Array>
          </mxGeometry>
        </mxCell>
        <mxCell id="H_bpuQL1PY2YIGlxpJCq-89" value="" style="endArrow=classic;html=1;rounded=0;strokeWidth=2;exitX=1;exitY=0.5;exitDx=0;exitDy=0;entryX=0;entryY=0.5;entryDx=0;entryDy=0;fillColor=#dae8fc;strokeColor=#6c8ebf;" edge="1" parent="1" source="H_bpuQL1PY2YIGlxpJCq-83" target="H_bpuQL1PY2YIGlxpJCq-86">
          <mxGeometry width="50" height="50" relative="1" as="geometry">
            <mxPoint x="1361" y="630" as="sourcePoint" />
            <mxPoint x="1411" y="580" as="targetPoint" />
          </mxGeometry>
        </mxCell>
        <mxCell id="H_bpuQL1PY2YIGlxpJCq-90" value="011" style="rounded=0;whiteSpace=wrap;html=1;strokeWidth=2;fillWeight=4;hachureGap=8;hachureAngle=45;fillColor=#dae8fc;strokeColor=#6c8ebf;fontSize=15;fontStyle=1;" vertex="1" parent="1">
          <mxGeometry x="1801" y="440" width="80" height="40" as="geometry" />
        </mxCell>
        <mxCell id="H_bpuQL1PY2YIGlxpJCq-91" value="" style="curved=1;endArrow=classic;html=1;rounded=0;strokeWidth=2;exitX=0.5;exitY=1;exitDx=0;exitDy=0;" edge="1" parent="1" source="H_bpuQL1PY2YIGlxpJCq-90">
          <mxGeometry width="50" height="50" relative="1" as="geometry">
            <mxPoint x="1861" y="480" as="sourcePoint" />
            <mxPoint x="1781" y="560" as="targetPoint" />
            <Array as="points">
              <mxPoint x="1831" y="520" />
              <mxPoint x="1791" y="520" />
            </Array>
          </mxGeometry>
        </mxCell>
        <mxCell id="H_bpuQL1PY2YIGlxpJCq-92" value="" style="curved=1;endArrow=classic;html=1;rounded=0;strokeWidth=2;entryX=0.5;entryY=0;entryDx=0;entryDy=0;" edge="1" parent="1">
          <mxGeometry width="50" height="50" relative="1" as="geometry">
            <mxPoint x="1841" y="480" as="sourcePoint" />
            <mxPoint x="1901" y="560" as="targetPoint" />
            <Array as="points">
              <mxPoint x="1851" y="520" />
              <mxPoint x="1891" y="520" />
            </Array>
          </mxGeometry>
        </mxCell>
        <mxCell id="H_bpuQL1PY2YIGlxpJCq-93" value="111" style="rounded=0;whiteSpace=wrap;html=1;strokeWidth=2;fillWeight=4;hachureGap=8;hachureAngle=45;fillColor=#dae8fc;strokeColor=#6c8ebf;fontSize=15;fontStyle=1;" vertex="1" parent="1">
          <mxGeometry x="2041" y="440" width="80" height="40" as="geometry" />
        </mxCell>
        <mxCell id="H_bpuQL1PY2YIGlxpJCq-94" value="" style="curved=1;endArrow=classic;html=1;rounded=0;strokeWidth=2;exitX=0.5;exitY=1;exitDx=0;exitDy=0;" edge="1" parent="1">
          <mxGeometry width="50" height="50" relative="1" as="geometry">
            <mxPoint x="2081" y="480" as="sourcePoint" />
            <mxPoint x="2021" y="560" as="targetPoint" />
            <Array as="points">
              <mxPoint x="2071" y="520" />
              <mxPoint x="2031" y="520" />
            </Array>
          </mxGeometry>
        </mxCell>
        <mxCell id="H_bpuQL1PY2YIGlxpJCq-95" value="" style="curved=1;endArrow=classic;html=1;rounded=0;strokeWidth=2;entryX=0.5;entryY=0;entryDx=0;entryDy=0;" edge="1" parent="1">
          <mxGeometry width="50" height="50" relative="1" as="geometry">
            <mxPoint x="2081" y="480" as="sourcePoint" />
            <mxPoint x="2141" y="560" as="targetPoint" />
            <Array as="points">
              <mxPoint x="2091" y="520" />
              <mxPoint x="2131" y="520" />
            </Array>
          </mxGeometry>
        </mxCell>
        <mxCell id="H_bpuQL1PY2YIGlxpJCq-96" value="" style="endArrow=classic;html=1;rounded=0;strokeWidth=2;exitX=1;exitY=0.5;exitDx=0;exitDy=0;entryX=0;entryY=0.5;entryDx=0;entryDy=0;fillColor=#dae8fc;strokeColor=#6c8ebf;" edge="1" parent="1" source="H_bpuQL1PY2YIGlxpJCq-90" target="H_bpuQL1PY2YIGlxpJCq-93">
          <mxGeometry width="50" height="50" relative="1" as="geometry">
            <mxPoint x="1841" y="630" as="sourcePoint" />
            <mxPoint x="1891" y="580" as="targetPoint" />
          </mxGeometry>
        </mxCell>
        <mxCell id="H_bpuQL1PY2YIGlxpJCq-97" value="" style="endArrow=classic;html=1;rounded=0;strokeWidth=2;exitX=1;exitY=0.5;exitDx=0;exitDy=0;entryX=0;entryY=0.5;entryDx=0;entryDy=0;fillColor=#dae8fc;strokeColor=#6c8ebf;" edge="1" parent="1" source="H_bpuQL1PY2YIGlxpJCq-86" target="H_bpuQL1PY2YIGlxpJCq-90">
          <mxGeometry width="50" height="50" relative="1" as="geometry">
            <mxPoint x="1731" y="720" as="sourcePoint" />
            <mxPoint x="1781" y="670" as="targetPoint" />
          </mxGeometry>
        </mxCell>
        <mxCell id="H_bpuQL1PY2YIGlxpJCq-98" value="" style="endArrow=classic;html=1;rounded=0;strokeWidth=2;exitX=1;exitY=0.5;exitDx=0;exitDy=0;fillColor=#dae8fc;strokeColor=#6c8ebf;" edge="1" parent="1" source="H_bpuQL1PY2YIGlxpJCq-78">
          <mxGeometry width="50" height="50" relative="1" as="geometry">
            <mxPoint x="1251" y="740" as="sourcePoint" />
            <mxPoint x="1321" y="460" as="targetPoint" />
          </mxGeometry>
        </mxCell>
        <mxCell id="H_bpuQL1PY2YIGlxpJCq-99" value="10" style="rounded=0;whiteSpace=wrap;html=1;strokeWidth=2;fillWeight=4;hachureGap=8;hachureAngle=45;fillColor=#ffe6cc;strokeColor=#d79b00;fontSize=15;fontStyle=1;" vertex="1" parent="1">
          <mxGeometry x="961" y="320" width="80" height="40" as="geometry" />
        </mxCell>
        <mxCell id="H_bpuQL1PY2YIGlxpJCq-100" value="" style="curved=1;endArrow=classic;html=1;rounded=0;strokeWidth=2;exitX=0.5;exitY=1;exitDx=0;exitDy=0;entryX=0.5;entryY=0;entryDx=0;entryDy=0;" edge="1" parent="1" source="H_bpuQL1PY2YIGlxpJCq-99">
          <mxGeometry width="50" height="50" relative="1" as="geometry">
            <mxPoint x="981" y="360" as="sourcePoint" />
            <mxPoint x="881" y="440" as="targetPoint" />
            <Array as="points">
              <mxPoint x="991" y="400" />
              <mxPoint x="891" y="400" />
            </Array>
          </mxGeometry>
        </mxCell>
        <mxCell id="H_bpuQL1PY2YIGlxpJCq-101" value="" style="curved=1;endArrow=classic;html=1;rounded=0;strokeWidth=2;entryX=0.5;entryY=0;entryDx=0;entryDy=0;exitX=0.5;exitY=1;exitDx=0;exitDy=0;" edge="1" parent="1" source="H_bpuQL1PY2YIGlxpJCq-99">
          <mxGeometry width="50" height="50" relative="1" as="geometry">
            <mxPoint x="981" y="360" as="sourcePoint" />
            <mxPoint x="1121" y="440" as="targetPoint" />
            <Array as="points">
              <mxPoint x="1011" y="400" />
              <mxPoint x="1111" y="400" />
            </Array>
          </mxGeometry>
        </mxCell>
        <mxCell id="H_bpuQL1PY2YIGlxpJCq-102" value="" style="endArrow=classic;html=1;rounded=0;strokeWidth=2;exitX=1;exitY=0.5;exitDx=0;exitDy=0;entryX=0;entryY=0.5;entryDx=0;entryDy=0;fillColor=#ffe6cc;strokeColor=#d79b00;" edge="1" parent="1" source="H_bpuQL1PY2YIGlxpJCq-24" target="H_bpuQL1PY2YIGlxpJCq-99">
          <mxGeometry width="50" height="50" relative="1" as="geometry">
            <mxPoint x="721" y="400" as="sourcePoint" />
            <mxPoint x="771" y="350" as="targetPoint" />
          </mxGeometry>
        </mxCell>
        <mxCell id="H_bpuQL1PY2YIGlxpJCq-103" value="01" style="rounded=0;whiteSpace=wrap;html=1;strokeWidth=2;fillWeight=4;hachureGap=8;hachureAngle=45;fillColor=#ffe6cc;strokeColor=#d79b00;fontSize=15;fontStyle=1;" vertex="1" parent="1">
          <mxGeometry x="1441" y="320" width="80" height="40" as="geometry" />
        </mxCell>
        <mxCell id="H_bpuQL1PY2YIGlxpJCq-104" value="" style="curved=1;endArrow=classic;html=1;rounded=0;strokeWidth=2;exitX=0.5;exitY=1;exitDx=0;exitDy=0;entryX=0.5;entryY=0;entryDx=0;entryDy=0;" edge="1" parent="1" source="H_bpuQL1PY2YIGlxpJCq-103">
          <mxGeometry width="50" height="50" relative="1" as="geometry">
            <mxPoint x="1461" y="360" as="sourcePoint" />
            <mxPoint x="1361" y="440" as="targetPoint" />
            <Array as="points">
              <mxPoint x="1471" y="400" />
              <mxPoint x="1371" y="400" />
            </Array>
          </mxGeometry>
        </mxCell>
        <mxCell id="H_bpuQL1PY2YIGlxpJCq-105" value="" style="curved=1;endArrow=classic;html=1;rounded=0;strokeWidth=2;entryX=0.5;entryY=0;entryDx=0;entryDy=0;exitX=0.5;exitY=1;exitDx=0;exitDy=0;" edge="1" parent="1" source="H_bpuQL1PY2YIGlxpJCq-103">
          <mxGeometry width="50" height="50" relative="1" as="geometry">
            <mxPoint x="1461" y="360" as="sourcePoint" />
            <mxPoint x="1601" y="440" as="targetPoint" />
            <Array as="points">
              <mxPoint x="1491" y="400" />
              <mxPoint x="1591" y="400" />
            </Array>
          </mxGeometry>
        </mxCell>
        <mxCell id="H_bpuQL1PY2YIGlxpJCq-106" value="11" style="rounded=0;whiteSpace=wrap;html=1;strokeWidth=2;fillWeight=4;hachureGap=8;hachureAngle=45;fillColor=#ffe6cc;strokeColor=#d79b00;fontSize=15;fontStyle=1;" vertex="1" parent="1">
          <mxGeometry x="1921" y="320" width="80" height="40" as="geometry" />
        </mxCell>
        <mxCell id="H_bpuQL1PY2YIGlxpJCq-107" value="" style="curved=1;endArrow=classic;html=1;rounded=0;strokeWidth=2;exitX=0.5;exitY=1;exitDx=0;exitDy=0;entryX=0.5;entryY=0;entryDx=0;entryDy=0;" edge="1" parent="1" source="H_bpuQL1PY2YIGlxpJCq-106">
          <mxGeometry width="50" height="50" relative="1" as="geometry">
            <mxPoint x="1941" y="360" as="sourcePoint" />
            <mxPoint x="1841" y="440" as="targetPoint" />
            <Array as="points">
              <mxPoint x="1951" y="400" />
              <mxPoint x="1851" y="400" />
            </Array>
          </mxGeometry>
        </mxCell>
        <mxCell id="H_bpuQL1PY2YIGlxpJCq-108" value="" style="curved=1;endArrow=classic;html=1;rounded=0;strokeWidth=2;entryX=0.5;entryY=0;entryDx=0;entryDy=0;exitX=0.5;exitY=1;exitDx=0;exitDy=0;" edge="1" parent="1" source="H_bpuQL1PY2YIGlxpJCq-106">
          <mxGeometry width="50" height="50" relative="1" as="geometry">
            <mxPoint x="1941" y="360" as="sourcePoint" />
            <mxPoint x="2081" y="440" as="targetPoint" />
            <Array as="points">
              <mxPoint x="1971" y="400" />
              <mxPoint x="2071" y="400" />
            </Array>
          </mxGeometry>
        </mxCell>
        <mxCell id="H_bpuQL1PY2YIGlxpJCq-109" value="" style="endArrow=classic;html=1;rounded=0;strokeWidth=2;exitX=1;exitY=0.5;exitDx=0;exitDy=0;entryX=0;entryY=0.5;entryDx=0;entryDy=0;fillColor=#ffe6cc;strokeColor=#d79b00;" edge="1" parent="1" source="H_bpuQL1PY2YIGlxpJCq-103" target="H_bpuQL1PY2YIGlxpJCq-106">
          <mxGeometry width="50" height="50" relative="1" as="geometry">
            <mxPoint x="1681" y="400" as="sourcePoint" />
            <mxPoint x="1731" y="350" as="targetPoint" />
          </mxGeometry>
        </mxCell>
        <mxCell id="H_bpuQL1PY2YIGlxpJCq-110" value="" style="endArrow=classic;html=1;rounded=0;strokeWidth=2;exitX=1;exitY=0.5;exitDx=0;exitDy=0;entryX=0;entryY=0.5;entryDx=0;entryDy=0;fillColor=#ffe6cc;strokeColor=#d79b00;" edge="1" parent="1" source="H_bpuQL1PY2YIGlxpJCq-99" target="H_bpuQL1PY2YIGlxpJCq-103">
          <mxGeometry width="50" height="50" relative="1" as="geometry">
            <mxPoint x="1151" y="400" as="sourcePoint" />
            <mxPoint x="1201" y="350" as="targetPoint" />
          </mxGeometry>
        </mxCell>
        <mxCell id="H_bpuQL1PY2YIGlxpJCq-111" value="" style="endArrow=classic;html=1;rounded=0;strokeWidth=2;" edge="1" parent="1">
          <mxGeometry width="50" height="50" relative="1" as="geometry">
            <mxPoint x="301" y="680" as="sourcePoint" />
            <mxPoint x="551" y="680" as="targetPoint" />
          </mxGeometry>
        </mxCell>
        <mxCell id="H_bpuQL1PY2YIGlxpJCq-112" value="遍历顺序" style="text;strokeColor=none;fillColor=none;html=1;fontSize=20;fontStyle=1;verticalAlign=middle;align=center;" vertex="1" parent="1">
          <mxGeometry x="421" y="680" width="120" height="40" as="geometry" />
        </mxCell>
        <mxCell id="H_bpuQL1PY2YIGlxpJCq-193" value="缩容：" style="text;strokeColor=none;fillColor=none;html=1;fontSize=25;fontStyle=1;verticalAlign=middle;align=center;" vertex="1" parent="1">
          <mxGeometry x="200" y="320" width="80" height="40" as="geometry" />
        </mxCell>
        <mxCell id="H_bpuQL1PY2YIGlxpJCq-194" value="当前：" style="text;strokeColor=none;fillColor=none;html=1;fontSize=25;fontStyle=1;verticalAlign=middle;align=center;" vertex="1" parent="1">
          <mxGeometry x="200" y="440" width="80" height="40" as="geometry" />
        </mxCell>
        <mxCell id="H_bpuQL1PY2YIGlxpJCq-195" value="扩容：" style="text;strokeColor=none;fillColor=none;html=1;fontSize=25;fontStyle=1;verticalAlign=middle;align=center;" vertex="1" parent="1">
          <mxGeometry x="200" y="560" width="80" height="40" as="geometry" />
        </mxCell>
      </root>
    </mxGraphModel>
  </diagram>
</mxfile>
